<svg xmlns="http://www.w3.org/2000/svg" width="91.39" height="30.627" viewBox="0 0 91.39 30.627">
  <g id="Group_16" data-name="Group 16" transform="translate(-89.206 -67.037)">
    <g id="Flecs" transform="translate(89.206 67.037)">
      <path id="Shape_1" data-name="Shape 1" d="M270.472,261.29a1.48,1.48,0,0,1-.448,1.086l-5.647,5.647a1.54,1.54,0,0,1-2.172,0l-5.647-5.647a1.54,1.54,0,0,1,0-2.172l5.647-5.647a1.54,1.54,0,0,1,2.172,0l5.647,5.647A1.48,1.48,0,0,1,270.472,261.29Zm1.229,0a2.664,2.664,0,0,0-.808-1.955l-5.648-5.648a2.77,2.77,0,0,0-3.91,0l-5.648,5.648a2.77,2.77,0,0,0,0,3.91l5.648,5.648a2.77,2.77,0,0,0,3.91,0l5.648-5.648A2.664,2.664,0,0,0,271.7,261.29Z" transform="translate(-247.99 -246.044)" fill="#ff2e63"/>
      <path id="Shape_2" data-name="Shape 2" d="M463.017,2.932,465.5,5.526a.225.225,0,0,1,.055.092.609.609,0,1,1-.908.809l-.005-.006-1.781-1.857-1.781,1.856a.212.212,0,0,1-.077.053.608.608,0,0,1-.816-.9.233.233,0,0,1,.035-.045l2.489-2.594a.2.2,0,0,1,.3,0Zm0-2.865L465.5,2.661a.225.225,0,0,1,.056.1.608.608,0,1,1-.941.772L462.866,1.7l-1.781,1.856a.212.212,0,0,1-.077.053.608.608,0,0,1-.816-.9.233.233,0,0,1,.035-.045L462.715.066a.2.2,0,0,1,.3,0Z" transform="translate(-447.565 0)" fill="#ff2e63"/>
      <path id="Shape_3" data-name="Shape 3" d="M5.988,463.7a.606.606,0,0,1-.416-.164.231.231,0,0,1-.046-.035l-2.594-2.489a.2.2,0,0,1,0-.3l2.552-2.448a.609.609,0,1,1,1,.69.2.2,0,0,1-.065.128l-1.857,1.781,1.856,1.781a.211.211,0,0,1,.057.089.608.608,0,0,1-.491.968Zm-2.892.027a.608.608,0,0,1-.539-.326L.066,461.016a.2.2,0,0,1,0-.3l2.552-2.448a.609.609,0,1,1,1,.69.2.2,0,0,1-.065.128L1.7,460.865l1.856,1.781a.2.2,0,0,1,.066.151c0,.007,0,.013,0,.019a.609.609,0,0,1-.526.914Z" transform="translate(0 -445.619)" fill="#ff2e63"/>
      <path id="Shape_3_copy_2" data-name="Shape 3 copy 2" d="M460.027,890.5a.608.608,0,0,1,1.084-.379l1.754,1.829,1.781-1.856a.21.21,0,0,1,.077-.053.608.608,0,0,1,.816.9.233.233,0,0,1-.035.046l-2.489,2.594a.2.2,0,0,1-.3,0l-2.488-2.595a.224.224,0,0,1-.056-.1A.605.605,0,0,1,460.027,890.5ZM460,887.608a.608.608,0,0,1,1.079-.385l.005.006,1.781,1.857,1.781-1.856a.211.211,0,0,1,.077-.053.608.608,0,0,1,.816.9.237.237,0,0,1-.035.045l-2.489,2.594a.2.2,0,0,1-.3,0l-2.488-2.595a.225.225,0,0,1-.055-.092A.607.607,0,0,1,460,887.608Z" transform="translate(-447.565 -863.023)" fill="#ff2e63"/>
      <path id="Shape_3_copy_3" data-name="Shape 3 copy 3" d="M886,458.635a.608.608,0,0,1,1-.465.219.219,0,0,1,.1.056l2.594,2.489a.2.2,0,0,1,0,.3L887.1,463.5a.233.233,0,0,1-.045.034.608.608,0,0,1-.9-.815.209.209,0,0,1,.053-.078l1.857-1.781-1.825-1.751A.606.606,0,0,1,886,458.635Zm2.892-.027a.608.608,0,0,1,1.11-.344l2.554,2.45a.2.2,0,0,1,0,.3l-2.595,2.488a.232.232,0,0,1-.045.034.608.608,0,0,1-.9-.815.212.212,0,0,1,.053-.078l1.857-1.781-1.857-1.781a.2.2,0,0,1-.065-.127A.606.606,0,0,1,888.892,458.608Z" transform="translate(-862.049 -445.619)" fill="#ff2e63"/>
    </g>
    <path id="Path_345" data-name="Path 345" d="M2.322,0a.7.7,0,0,1-.531-.216.727.727,0,0,1-.207-.522V-11.88a.7.7,0,0,1,.207-.513A.7.7,0,0,1,2.3-12.6H8.622a.745.745,0,0,1,.522.2.654.654,0,0,1,.216.5.634.634,0,0,1-.216.486.745.745,0,0,1-.522.2H2.952l.108-.144v4.41l-.09-.2H7.812a.727.727,0,0,1,.522.207.682.682,0,0,1,.216.513.643.643,0,0,1-.216.477.727.727,0,0,1-.522.207H2.934L3.06-5.9V-.738a.711.711,0,0,1-.216.522A.711.711,0,0,1,2.322,0ZM18.7-1.422a.727.727,0,0,1,.522.207A.682.682,0,0,1,19.44-.7a.654.654,0,0,1-.216.5A.745.745,0,0,1,18.7,0H12.474a.682.682,0,0,1-.513-.216.727.727,0,0,1-.207-.522V-11.88a.682.682,0,0,1,.216-.513.75.75,0,0,1,.54-.207.727.727,0,0,1,.522.207.682.682,0,0,1,.216.513V-1.1l-.36-.324ZM22.23-12.6h6.408a.745.745,0,0,1,.522.2.654.654,0,0,1,.216.5.626.626,0,0,1-.216.495.765.765,0,0,1-.522.189h-5.8L23-11.52v4.554l-.18-.2h5a.745.745,0,0,1,.522.2.654.654,0,0,1,.216.5.626.626,0,0,1-.216.495.765.765,0,0,1-.522.189h-4.95L23-5.94v4.662L22.9-1.4h5.742a.711.711,0,0,1,.522.216.672.672,0,0,1,.216.486.654.654,0,0,1-.216.5.745.745,0,0,1-.522.2H22.23a.682.682,0,0,1-.513-.216.727.727,0,0,1-.207-.522V-11.88a.7.7,0,0,1,.207-.513A.7.7,0,0,1,22.23-12.6Zm18.612.828a.625.625,0,0,1,.351.486.752.752,0,0,1-.171.594.536.536,0,0,1-.414.252.96.96,0,0,1-.5-.108,5.564,5.564,0,0,0-1.278-.567,4.945,4.945,0,0,0-1.44-.207,4.988,4.988,0,0,0-1.944.369,4.571,4.571,0,0,0-1.53,1.035A4.706,4.706,0,0,0,32.9-8.334a5.527,5.527,0,0,0-.36,2.034,5.632,5.632,0,0,0,.378,2.124,4.721,4.721,0,0,0,1.035,1.593,4.42,4.42,0,0,0,1.53,1,5.161,5.161,0,0,0,1.9.342,5.088,5.088,0,0,0,1.422-.2,5.216,5.216,0,0,0,1.3-.576.841.841,0,0,1,.5-.09.676.676,0,0,1,.432.252.761.761,0,0,1,.162.6.6.6,0,0,1-.342.459,6.81,6.81,0,0,1-1.026.5,7.24,7.24,0,0,1-1.2.351A6.276,6.276,0,0,1,37.386.18a6.668,6.668,0,0,1-2.448-.45,6.131,6.131,0,0,1-2.034-1.3,6.149,6.149,0,0,1-1.395-2.043A6.768,6.768,0,0,1,31-6.3a6.646,6.646,0,0,1,.486-2.574,6.145,6.145,0,0,1,1.359-2.034,6.343,6.343,0,0,1,2.034-1.35,6.437,6.437,0,0,1,2.511-.486,6.681,6.681,0,0,1,1.827.252A6.145,6.145,0,0,1,40.842-11.772ZM47.052.18a6.373,6.373,0,0,1-2.34-.4,6.256,6.256,0,0,1-1.944-1.26,1.162,1.162,0,0,1-.207-.279.7.7,0,0,1-.081-.333.737.737,0,0,1,.207-.513.669.669,0,0,1,.513-.225.62.62,0,0,1,.45.2,5.144,5.144,0,0,0,1.521,1.044,4.539,4.539,0,0,0,1.845.36,3.872,3.872,0,0,0,1.431-.252,2.488,2.488,0,0,0,1.017-.7,1.575,1.575,0,0,0,.378-1.044,1.824,1.824,0,0,0-.423-1.188A3.114,3.114,0,0,0,48.3-5.193a9.166,9.166,0,0,0-1.647-.531,10.058,10.058,0,0,1-1.521-.486,4.58,4.58,0,0,1-1.2-.711,2.927,2.927,0,0,1-.783-1.026,3.336,3.336,0,0,1-.279-1.413,3.067,3.067,0,0,1,.54-1.8,3.5,3.5,0,0,1,1.494-1.2,5.37,5.37,0,0,1,2.2-.423,5.987,5.987,0,0,1,2.079.36,4.027,4.027,0,0,1,1.575.99.956.956,0,0,1,.36.666.688.688,0,0,1-.225.5.707.707,0,0,1-.513.225.529.529,0,0,1-.36-.144,3.116,3.116,0,0,0-.774-.612,4.624,4.624,0,0,0-1.026-.432,3.986,3.986,0,0,0-1.116-.162,4.036,4.036,0,0,0-1.458.243,2.256,2.256,0,0,0-.981.684,1.639,1.639,0,0,0-.351,1.053,1.62,1.62,0,0,0,.4,1.125,2.91,2.91,0,0,0,1.062.72,11.482,11.482,0,0,0,1.476.495,14.559,14.559,0,0,1,1.629.5,4.942,4.942,0,0,1,1.287.693A2.781,2.781,0,0,1,51-4.833a3.726,3.726,0,0,1,.3,1.575,2.94,2.94,0,0,1-.558,1.764A3.755,3.755,0,0,1,49.221-.279,5.347,5.347,0,0,1,47.052.18Z" transform="translate(129.296 88.396)" fill="#ff2e63"/>
  </g>
</svg>
