<svg xml:space="preserve" style="enable-background:new 0 0 461.7 74.3;" viewBox="0 0 461.7 74.3" y="0px" x="0px" xmlns:xlink="http://www.w3.org/1999/xlink" xmlns="http://www.w3.org/2000/svg" id="Ebene_1" version="1.1">
<style type="text/css">
	.st0{fill:#C90F11;}
</style>
<g>
	<g>
		<path d="M204.7,12.7v23c0,5.3,4.8,9.6,10.8,9.6h23.9v-7.7h-23.9c-1.5,0-2.7-1.1-2.7-2.4V12.7H204.7z" class="st0"></path>
		<path d="M186.7,20.4c1.5,0,2.7,1.1,2.7,2.4l0,2.7h-32.8v-2.8c0-1.3,1.2-2.3,2.7-2.3 M197.6,27.9v-5.6
			c0-5.3-4.8-9.6-10.8-9.6l-27.6,0c-6,0-10.8,4.3-10.8,9.6v13.4c0,5.3,4.8,9.6,10.8,9.6H197v-7.7h-37.8c-1.5,0-2.7-1.1-2.7-2.4
			l0-2.5h35.6C195.1,32.7,197.6,30.5,197.6,27.9" class="st0"></path>
		<path d="M390.3,20.4c1.5,0,2.7,1.1,2.7,2.4l0,2.7h-32.8v-2.8c0-1.3,1.2-2.3,2.7-2.3 M401.2,27.9v-5.7
			c0-5.3-4.8-9.5-10.8-9.5h-27.6c-6,0-10.8,4.3-10.8,9.6v13.4c0,5.3,4.8,9.6,10.8,9.6h38.4v-7.7h-38.3c-1.5,0-2.7-1.1-2.7-2.4v-2.5
			h35.6C398.8,32.7,401.2,30.5,401.2,27.9" class="st0"></path>
		<path d="M257.3,37.6c-2.1,0-3.8-1.5-3.8-3.4V23.8c0-1.9,1.7-3.4,3.8-3.4h25.2c2.1,0,3.8,1.5,3.8,3.4v10.5
			c0,1.9-1.7,3.4-3.8,3.4 M245.3,22.3v13.3c0,5.3,4.8,9.6,10.8,9.6h27.6c6,0,10.8-4.3,10.8-9.6V22.3c0-5.3-4.8-9.6-10.8-9.6h-27.6
			C250.1,12.7,245.3,17,245.3,22.3" class="st0"></path>
		<path d="M450.3,45.3h-31.2c-6,0-10.8-4.3-10.8-9.6V22.2c0-5.3,4.9-9.6,10.9-9.6h31.1l-0.1,7.7h-29.9
			c-2.1,0-3.8,1.5-3.8,3.4l0,10.5c0,1.9,1.7,3.3,3.8,3.3h30V45.3z" class="st0"></path>
		<path d="M457.8,19.7c-1.8,0-3.2-1.4-3.2-3.2c0-1.8,1.4-3.2,3.2-3.2c1.8,0,3.2,1.4,3.2,3.2
			C461,18.2,459.6,19.7,457.8,19.7 M457.8,12.6c-2.1,0-3.8,1.7-3.8,3.8c0,2.1,1.7,3.8,3.8,3.8c2.1,0,3.8-1.7,3.8-3.8
			C461.7,14.4,460,12.6,457.8,12.6" class="st0"></path>
		<path d="M458.1,16.5c0.6,0,0.8-0.1,0.8-0.8c0-0.6-0.1-0.7-0.7-0.7H457v1.5H458.1z M457,17.2v1.4h-0.8v-4.3h2.2
			c0.9,0,1.3,0.3,1.3,1.3c0,0.6,0,1.1-0.8,1.2v0c0.6,0.1,0.7,0.4,0.7,1v0.8h-0.8v-0.8c0-0.4-0.1-0.6-0.5-0.6H457z" class="st0"></path>
		<path d="M319.1,45.3h8.2V22.6c0.1-1.2,1.2-2.2,2.6-2.2h16.1v-7.7h-16.1c-2.5,0-4.8,0.7-6.6,2c-1.8-1.3-4.1-2-6.6-2
			l-16.1,0v7.7h16.1c1.4,0,2.5,1,2.6,2.2" class="st0"></path>
	</g>
</g>
<path d="M135.9,12.7l-8.2,22.5c0,0-0.2,1.3-1.6,1.3c-1.4,0-1.8-1.6-1.8-1.6l-6-22.2h-7.9l-6,22.2c0,0-0.4,1.7-1.8,1.6
	c-1.4,0-1.6-1.3-1.6-1.3l-8.2-22.5h-9.4l10.8,28.4c0,0,1.4,4.8,8,4.8c6.1,0,7.8-4.7,7.8-4.7l4.4-15.8l4.4,15.8c0,0,1.7,4.7,7.8,4.7
	c6.6,0,8-4.8,8-4.8l10.8-28.4H135.9z" class="st0"></path>
<g>
	<g>
		<g>
			<g>
				<path d="M11.2,58.8c-2.1,0-3.8-1.7-3.8-3.8V42.3c0-2.1,1.7-3.8,3.8-3.8s3.8,1.7,3.8,3.8V55
					C15,57.1,13.3,58.8,11.2,58.8z" class="st0"></path>
			</g>
			<g>
				<path d="M24.4,71.6c-2.1,0-3.8-1.7-3.8-3.8V42.3c0-2.1,1.7-3.8,3.8-3.8s3.8,1.7,3.8,3.8v25.5
					C28.2,69.9,26.5,71.6,24.4,71.6z" class="st0"></path>
			</g>
		</g>
		<g>
			<path d="M37.7,58.8c-2.1,0-3.8-1.7-3.8-3.8V42.3c0-2.1,1.7-3.8,3.8-3.8s3.8,1.7,3.8,3.8V55
				C41.5,57.1,39.8,58.8,37.7,58.8z" class="st0"></path>
		</g>
		<g>
			<path d="M11.9,7.5H37c2.1,0,3.8,1.5,3.8,3.4v10.5c0,1.9-1.7,3.4-3.8,3.4H11.9c-2.1,0-3.8-1.5-3.8-3.4V10.9
				C8.1,9,9.8,7.5,11.9,7.5 M48.9,22.9V9.6c0-5.3-4.8-9.6-10.7-9.6H10.7C4.8,0,0,4.3,0,9.6v13.3c0,5.3,4.8,9.6,10.7,9.6h27.5
				C44.1,32.5,48.9,28.2,48.9,22.9" class="st0"></path>
		</g>
	</g>
</g>
</svg>
